<?xml version="1.0" encoding="UTF-8"?><svg id="Capa_1" xmlns="http://www.w3.org/2000/svg" viewBox="0 0 906.71 883.85"><defs><style>.cls-1{fill:#fff;}</style></defs><path class="cls-1" d="M764.69,120.65c-20.06,16.31-39.56,32.16-59.54,48.4-1.67-1.34-3.49-2.69-5.19-4.18-46.81-41.02-100.79-68.09-161.24-82.31-77.2-18.15-152.55-11.39-225.94,18.02-61.85,24.78-113.32,63.78-154.63,115.86-39.83,50.21-65.07,107.06-74.35,170.67-9.58,65.66-1.92,129.28,24.17,190.34,25.34,59.31,64.01,108.47,115.22,147.7,52.72,40.38,112.05,65.41,177.79,74.15,93.46,12.43,180.22-6.9,259.71-57.79,20.54-13.15,39.41-28.5,56.83-45.6,.82-.8,1.73-1.51,2.82-2.45,20.43,17.3,40.71,34.49,60.87,51.57-6.66,6.92-12.6,13.91-19.36,20-66.48,59.79-143.69,98-232,112.3-96.43,15.61-189.52,3.41-277.45-39.77-103.49-50.82-177.99-129.68-221.87-236.58C8.09,546.32-1.53,489.03,.2,430.01c2.31-79.23,24.67-152.55,67.26-219.42,42.33-66.48,98.83-117.86,167.99-155.51C287.18,26.92,342.51,10.17,400.8,3.12c38.71-4.68,77.44-4,116.11,1.39,66.68,9.31,128.66,31.53,184.94,68.45,20.97,13.75,40.19,30.17,60.2,45.37,.78,.6,1.49,1.3,2.63,2.31Z"/><path class="cls-1" d="M740.71,205.85c20.18-15.53,40.21-30.95,60.95-46.92,56.82,67.88,92.05,144.88,102.09,232.71,14.6,127.71-26.33,236.17-87.57,314.12-20.5-16.96-41-33.92-61.99-51.29,50.43-67.16,75.68-142.54,72.79-226.56-2.88-83.74-33.14-157.2-86.26-222.07Z"/><path class="cls-1" d="M167.08,573.76c15.15,19.07,33.93,31.07,56.72,36.52,20.16,4.82,40.29,3.4,60.45-.67,26.79-5.41,51.33-16.3,74.87-29.73,38.11-21.73,72.83-47.99,104.34-78.52,1.21-1.17,3.52-1.67,5.33-1.69,12.66-.16,25.33-.12,37.99-.13,1.79,0,3.58,0,6.1,0,0-8.2-.01-15.8,0-23.41,.01-6.67-1.64-13.98,.58-19.81,2.2-5.78,8.32-10.08,12.72-15.03,32.28-36.28,59.93-75.74,81.19-119.48,14.12-29.07,24.74-59.33,28.08-91.71,3.5-33.9-2.28-65.16-27.33-90.46-4.04-4.08-8.55-7.69-13.84-12.41,16.6,5.09,30.25,12.69,41.48,24.24,16.4,16.85,24.14,37.56,26.21,60.65,2.8,31.24-4.11,60.92-14.57,90.01-14.9,41.39-36.5,79.18-62.32,114.6-12.15,16.66-25.11,32.72-37.79,49.17,43.04,57.53,86.41,115.52,130.33,174.23-2.28,.18-3.68,.38-5.07,.38-26.99,.07-53.99,.3-80.98,.11-33.52-.24-60.53-13.31-80.29-40.97-13.56-18.97-27.8-37.45-41.74-56.15-.77-1.04-1.6-2.04-2.6-3.3-5.83,4.87-11.39,9.58-17.04,14.19-31.86,26.03-65.8,48.84-103.48,65.66-29,12.95-59.04,21.8-91.21,21.27-24.64-.41-46.99-6.88-65.11-24.64-10.4-10.2-19.23-26.16-23.01-42.91Z"/><path class="cls-1" d="M498.9,402.29c8.02-9.75,16.18-18.98,23.55-28.79,20.87-27.77,38.96-57.24,53.06-89.08,8.75-19.76,15.04-40.23,18.16-61.6,3.61-24.74,.7-39-13.11-66.86,16.72,10.26,28.94,23.14,34.47,41.61,5.52,18.41,4.15,36.87,.42,55.35-7.13,35.28-22.66,67.05-41.09,97.55-18.93,31.32-41.21,60.16-65.36,87.59-1.85,2.1-3.64,4.24-6.43,7.51-1.18-9.01,1.13-18.01-6.39-23.94-6.95-5.49-14.79-7.26-23.47-5.97-6.81,1.01-12.97,3.86-15.76,10.09-2.49,5.56-2.99,12.01-4.54,18.81h-9.47c0,2.31-.02,4.07,0,5.82,.19,15.8,.43,31.6,.48,47.4,0,1.19-1.19,2.64-2.21,3.53-37.48,32.62-77.35,61.8-123.06,81.92-25,11-51.04,18.79-78.93,16.35-32.71-2.86-54.66-20.49-62.59-50.62-2.23-8.46-3.39-17.31-4.1-26.05-1.47-18.1,2.97-45.08,8.99-58.74-.7,9.95-1.47,19.89-2.1,29.85-.92,14.57,.1,28.98,4.2,43.04,8.64,29.61,28.93,41.74,58.89,39.15,28.24-2.45,53.89-13.19,78.48-26.55,34.86-18.94,66.72-42.12,95.73-69.19,1.09-1.02,2.14-2.09,3.18-3.17,.22-.23,.29-.59,.54-1.11-49.2-66.6-98.46-133.3-147.98-200.33,.94-.35,1.48-.73,2.01-.73,25.49,.12,50.99-.02,76.47,.51,37.16,.77,66.48,16.54,88.37,46.7,18.49,25.48,37.55,50.55,56.35,75.79,.88,1.19,1.81,2.35,3.22,4.18Z"/><path class="cls-1" d="M462.19,444.46c-.46-7.52-1.79-14.96,5.93-19.1,6.77-3.63,14.01-3.43,20.44,.71,6.75,4.35,5.28,11.45,4.91,18.38h-31.28Z"/></svg>