<?xml version="1.0" encoding="utf-8"?>
<!-- Generator: Adobe Illustrator 26.3.1, SVG Export Plug-In . SVG Version: 6.00 Build 0)  -->
<svg version="1.1" id="Capa_1" xmlns="http://www.w3.org/2000/svg" xmlns:xlink="http://www.w3.org/1999/xlink" x="0px" y="0px"
	 viewBox="0 0 1920 1080" style="enable-background:new 0 0 1920 1080;" xml:space="preserve">
<style type="text/css">
	.st0{fill:#00FC9D;}
</style>
<g>
	<path class="st0" d="M966.95,40.07c34.16,0,68.32,0.25,102.48-0.05c83.09-0.73,155.68,27.77,219.11,80.16
		c70.91,58.57,111.52,134.91,123.29,225.58c7.78,59.97-6.05,117.33-33.89,170.64c-50.31,96.36-128.35,157.69-235.72,176.86
		c-36.65,6.54-74.89,4.42-112.42,5.73c-19.86,0.7-41.99-5.11-59.01,1.93c-16.35,6.77-27.37,26.38-40.83,40.26
		c-45.01,46.42-92.72,89.47-149.39,121.57c-8.72,4.94-17.06,9.4-26.24,2.64c-9.48-6.97-6.09-16.96-4.88-26.34
		c3.33-25.6,10.12-51.42,8.76-76.78c-1.38-25.82-10.53-51.29-17.09-76.71c-0.89-3.45-6.07-6.84-9.99-8.28
		c-139.32-51.53-225.45-191.16-208.91-339.1C537.8,198.89,636.63,86.24,776.16,51.19c27.35-6.87,56.16-9.27,84.44-10.69
		C895.97,38.72,931.49,40.07,966.95,40.07z M966.43,619.38c46.7,0,93.4,0.59,140.08-0.28c19.76-0.37,39.95-1.69,59.12-6.15
		C1277.2,587,1360.95,480.61,1344.2,348.4c-15.57-122.88-119.11-208.77-237.22-206.89c-94.23,1.5-188.52,0.99-282.77,0.14
		c-118.18-1.07-220.12,88.03-234.29,209.03c-16.77,143.14,97.68,268.28,241.8,268.69C876.62,619.5,921.52,619.38,966.43,619.38z"/>
	<path class="st0" d="M1362.82,1040.04h-42.75c-15.85,0-28.69-12.85-28.69-28.69v-342.3c0-15.85,12.85-28.69,28.69-28.69h42.75
		c15.85,0,28.69,12.85,28.69,28.69v342.3C1391.51,1027.19,1378.66,1040.04,1362.82,1040.04z"/>
	<path class="st0" d="M1260.91,765.05v250.11c0,13.62-11.04,24.66-24.66,24.66h-47.4c-13.62,0-24.66-11.04-24.66-24.66V765.05
		c0-13.62,11.04-24.66,24.66-24.66h47.4C1249.87,740.39,1260.91,751.43,1260.91,765.05z"/>
	<path class="st0" d="M487.24,253.24v255.47c0,2.75-2.24,5.03-5,4.97c-40.21-0.94-71.08-19.7-93.82-51.57
		c-34.76-48.73-36.19-100.63-7.27-152.66c20.98-37.74,64.34-63.05,101.29-61.19C485.11,248.4,487.24,250.56,487.24,253.24z"/>
	<path class="st0" d="M1446,508.94V252.52c0-2.78,2.29-5.07,5.06-4.98c44.22,1.47,76.89,23.28,99.23,59.53
		c29.68,48.16,29.86,98.79-0.06,147.14c-22.5,36.36-55.16,57.63-99.1,59.69C1448.32,514.04,1446,511.74,1446,508.94z"/>
	<path class="st0" d="M1103.41,1040.33h-46.03c-16.15,0-29.24-13.09-29.24-29.24v-143.4c0-16.15,13.09-29.24,29.24-29.24h46.03
		c16.15,0,29.24,13.09,29.24,29.24v143.4C1132.65,1027.24,1119.56,1040.33,1103.41,1040.33z"/>
	<path class="st0" d="M1489.12,1040.36h-29.48c-20.72,0-37.53-16.8-37.53-37.53V875.99c0-20.72,16.8-37.53,37.53-37.53h29.48
		c20.72,0,37.53,16.8,37.53,37.53v126.84C1526.64,1023.56,1509.84,1040.36,1489.12,1040.36z"/>
	<path class="st0" d="M839.36,425.48h256.34c2.68,0,4.94,2.13,4.96,4.81c0.42,63.25-61.66,121.12-131.61,121.88
		c-71.69,0.78-133.79-55.45-134.66-121.77C834.36,427.68,836.63,425.48,839.36,425.48z"/>
	<path class="st0" d="M1142.29,221.94c34.49,0.04,60.36,27.43,60.37,63.92c0,36.8-26.81,65.05-61.35,64.65
		c-34.39-0.4-59.12-27.65-58.99-65C1082.45,248,1107.07,221.9,1142.29,221.94z"/>
	<path class="st0" d="M837.15,286.04c-0.04,37.42-24.75,64.29-59.27,64.46c-34.69,0.17-60.46-27.64-60.39-65.17
		c0.07-36.77,25.52-63.45,60.46-63.39C813.13,222,837.19,248.05,837.15,286.04z"/>
</g>
</svg>
