<?xml version="1.0" encoding="utf-8"?>
<!-- Generator: Adobe Illustrator 26.3.1, SVG Export Plug-In . SVG Version: 6.00 Build 0)  -->
<svg version="1.1" id="Capa_1" xmlns="http://www.w3.org/2000/svg" xmlns:xlink="http://www.w3.org/1999/xlink" x="0px" y="0px"
	 viewBox="0 0 1920 1080" style="enable-background:new 0 0 1920 1080;" xml:space="preserve">
<style type="text/css">
	.st0{fill:#3697FC;}
</style>
<g>
	<path class="st0" d="M952.69,46.04c77.55,0,155.1,0.22,232.64-0.09c42.67-0.17,79.86,14.75,113.22,40.04
		c60.66,45.97,96.19,108.8,115.3,180.8c30.73,115.75,23.95,228.97-31.36,336.85c-27.26,53.16-65.35,96.9-120.21,123.45
		c-25.7,12.43-52.96,18.95-81.89,18.9c-147.2-0.24-294.42-1.5-441.6,0.45c-77.83,1.03-136.86-31.48-183.73-89.96
		c-47.47-59.21-71.29-128.52-80.14-203.04c-9.52-80.18-0.84-158.53,30.38-233.4c28.24-67.72,69.64-124.53,138.03-157.4
		c22.09-10.61,45.21-16.49,69.74-16.51c79.87-0.05,159.74-0.02,239.61-0.02C952.69,46.1,952.69,46.07,952.69,46.04z M950.28,665.76
		c0-0.12,0-0.24,0-0.36c58.03,0,116.06,0.16,174.09-0.06c30.66-0.12,59.93-7.74,87.02-21.45
		c98.43-49.79,147.56-130.16,146.66-240.69c-1.1-134.38-112.24-246.88-246.3-248.02c-105.84-0.89-211.7-0.45-317.55-0.09
		c-46.92,0.16-90.82,12.46-130.65,37.53C553.73,261.76,511.61,407,569.94,523.02c45.91,91.31,120.56,141.06,224.34,142.61
		C846.27,666.4,898.28,665.76,950.28,665.76z"/>
	<path class="st0" d="M1340.34,843.49c-24.53,0-47.71-0.65-70.84,0.16c-33.27,1.16-59.54,15.64-73.02,46.73
		c-18.87,43.52,10.17,93.58,57.23,101.03c24.92,3.95,50.05,1.74,75.08,1.87c9.73,0.05,11.66,2.29,6.35,10.67
		c-16.28,25.69-36.31,44.16-69.79,41.79c-18.48-1.31-37.12-0.23-55.69-0.24c-38.57-0.02-63.5-16.68-77.21-53.39
		c-3.71-9.93-8.32-12.88-18.78-12.84c-98.42,0.45-196.84,0.39-295.26,0.06c-9.32-0.03-15.05,2.63-20.42,10.44
		c-39.61,57.61-122.64,72.83-175.83,32.68c-61.49-46.42-72.86-126.63-26.07-183.97c53.16-65.15,155.02-61.06,202.51,8.48
		c5.09,7.45,10.17,10.17,19.1,10.14c98.89-0.33,197.77-0.37,296.66,0.04c10.05,0.04,14.16-3.17,17.75-12.45
		c12.59-32.54,37.49-57.2,78.23-54.43c17.56,1.19,35.27,0.2,52.91,0.2C1301.03,790.47,1324.63,806.25,1340.34,843.49z
		 M693.46,986.44c32.84,11.03,47.77-6.52,63.37-33.03c15.25-25.92,15.45-44.15,0.32-70.45c-15.59-27.08-31.67-37.19-63.34-36.78
		c-30.19,0.39-45.97,9.42-61.37,35.37c-16.05,27.03-16.16,46.24,0.08,72.97C647.83,979.73,661.63,997.67,693.46,986.44z"/>
	<path class="st0" d="M436.65,410.39c0,43.6-0.39,87.2,0.27,130.79c0.17,10.9-3.38,13.71-13.43,12.56
		c-36.96-4.23-66.49-21.79-89.84-50.07C267.02,423,305.7,298.64,405.96,270.71c29.86-8.32,30.69-7.7,30.69,22.81
		C436.65,332.47,436.65,371.43,436.65,410.39z"/>
	<path class="st0" d="M1466.45,410.91c0-44.07,0.3-88.14-0.23-132.2c-0.12-10.11,2.75-12.25,12.54-11.31
		c70.12,6.73,124.5,71.18,122.81,146.25c-1.45,64.63-38.86,115.41-100.03,135.76c-1.32,0.44-2.63,0.9-3.96,1.3
		c-27.85,8.24-31.14,5.82-31.14-22.91C1466.45,488.84,1466.45,449.87,1466.45,410.91z"/>
	<path class="st0" d="M952.8,458.69c43.65,0,87.31,0.48,130.95-0.32c11.84-0.22,12.64,4.37,11.38,13.72
		c-9.26,68.6-66.68,119.14-139.27,122.28c-68.77,2.98-131.56-44.96-145.69-111.25c-0.29-1.36-0.66-2.71-0.88-4.08
		c-3.26-20.35-3.26-20.35,16.75-20.35C868.28,458.69,910.54,458.69,952.8,458.69z"/>
	<path class="st0" d="M811.82,309.66c3.96,36.46-30.9,70.74-63.96,69.02c-37.83-1.96-64.73-29.46-64.59-70.32
		c0.13-38.94,27.62-68.14,63.86-67.85C786.46,240.83,811.88,268,811.82,309.66z"/>
	<path class="st0" d="M1137.88,378.22c-36.51-0.24-62.7-28.94-62.68-68.68c0.03-41.42,26.33-69.27,65.1-68.93
		c36.96,0.32,64.48,30.03,64.18,69.28C1204.17,349.49,1175.93,378.47,1137.88,378.22z"/>
</g>
</svg>
